<svg xmlns="http://www.w3.org/2000/svg" xmlns:svg="http://www.w3.org/2000/svg" xmlns:xlink="http://www.w3.org/1999/xlink" version="1.0" height="312.01pt" width="759.9999999999999pt" viewBox="435.0000000000001 607 767.9999999999999 318.01" ><defs><style type="text/css">
            @font-face {
                font-family: 'noto_regular';
                src: url('https://app.creately.com/diagram/assets/fonts/noto/noto-regular.woff') format('woff'),
                     url('https://app.creately.com/diagram/assets/fonts/noto/noto-regular.woff2') format('woff2');
                font-weight: normal;
                font-style: normal;
            }
        p {
            margin: 0;
        }
        </style></defs><defs><style>
            span{ display: inline-block; }
        </style></defs><g id="tb3bPmyugkU"><g transform="translate(689.9999999999997 610)"><rect x="0" y="0" width="240.00000000000134" height="130" rx="2" ry="2" fill="rgb(255,255,255)" stroke="#24AFAF" stroke-width="2" stroke-linecap="round" stroke-linejoin="round"/><path d="M 0,28 L 240.00000000000134,28" fill="rgb(255,255,255)" stroke="#24AFAF" stroke-width="2" stroke-linecap="round" stroke-linejoin="round"/></g><g transform="translate(773.1150000000004, 615) rotate(0, 36.885, 0)" width="73.77" height="18"><text text-decoration="none" x="1.884999999999998" fill="#00001d" font-size="10pt" font-family="noto_regular"  y="17">C:Customer</text><text text-decoration="none" x="71.88499999999999" fill="#4b4b4b" font-size="10pt" font-family="noto_regular"  y="17"></text></g><g transform="translate(694.9999999999997, 643) rotate(0, 0, 0)" width="199.29" height="72"><text text-decoration="none" x="0" fill="#00001d" font-size="10pt" font-family="noto_regular"  y="14">customer_id=&#160;</text><text text-decoration="none" x="84" fill="#00001d" font-size="10pt" font-family="noto_regular"  y="14">0001</text><text text-decoration="none" x="112" fill="#00001d" font-size="10pt" font-family="noto_regular"  y="14"></text><text text-decoration="none" x="0" fill="#00001d" font-size="10pt" font-family="noto_regular"  y="33">customer_name=&#160;</text><text text-decoration="none" x="107" fill="#00001d" font-size="10pt" font-family="noto_regular"  y="33">Jane&#160;</text><text text-decoration="none" x="135" fill="#00001d" font-size="10pt" font-family="noto_regular"  y="33">Mark</text><text text-decoration="none" x="166" fill="#00001d" font-size="10pt" font-family="noto_regular"  y="33"></text><text text-decoration="none" x="0" fill="#00001d" font-size="10pt" font-family="noto_regular"  y="52">cutsomer_number=&#160;</text><text text-decoration="none" x="121" fill="#00001d" font-size="10pt" font-family="noto_regular"  y="52">1234567890</text><text text-decoration="none" x="191" fill="#00001d" font-size="10pt" font-family="noto_regular"  y="52"></text><text text-decoration="none" x="99.645" fill="#4b4b4b" font-size="10pt" font-family="noto_regular"  y="74"></text></g></g><g id="krf9AmCdEea"><g transform="translate(440.0000000000001 830)"><rect x="0" y="0" width="169.99999999999994" height="92.00999999999999" rx="2" ry="2" fill="rgb(255,255,255)" stroke="#24AFAF" stroke-width="2" stroke-linecap="round" stroke-linejoin="round"/><path d="M 0,28 L 169.99999999999994,28" fill="rgb(255,255,255)" stroke="#24AFAF" stroke-width="2" stroke-linecap="round" stroke-linejoin="round"/></g><g transform="translate(495.585, 835) rotate(0, 29.415, 0)" width="58.83" height="18"><text text-decoration="none" x="1.9149999999999991" fill="#00001d" font-size="10pt" font-family="noto_regular"  y="17">O1:Order</text><text text-decoration="none" x="56.915" fill="#4b4b4b" font-size="10pt" font-family="noto_regular"  y="17"></text></g><g transform="translate(445.0000000000001, 863) rotate(0, 0, 0)" width="128.75" height="54.01"><text text-decoration="none" x="0" fill="#00001d" font-size="10pt" font-family="noto_regular"  y="14">order_no=&#160;</text><text text-decoration="none" x="65" fill="#00001d" font-size="10pt" font-family="noto_regular"  y="14">0012</text><text text-decoration="none" x="93" fill="#00001d" font-size="10pt" font-family="noto_regular"  y="14"></text><text text-decoration="none" x="0" fill="#00001d" font-size="10pt" font-family="noto_regular"  y="33">order_amount=&#160;</text><text text-decoration="none" x="97" fill="#00001d" font-size="10pt" font-family="noto_regular"  y="33">550</text><text text-decoration="none" x="118" fill="#00001d" font-size="10pt" font-family="noto_regular"  y="33"></text><text text-decoration="none" x="0" fill="#00001d" font-size="10pt" font-family="noto_regular"  y="55">order_date=01-05-20</text><text text-decoration="none" x="123" fill="#4b4b4b" font-size="10pt" font-family="noto_regular"  y="55"></text></g></g><g id="MF5yRz1RiRa"><g transform="translate(729.9999999999998 830)"><rect x="0" y="0" width="169.99999999999994" height="92.00999999999999" rx="2" ry="2" fill="rgb(255,255,255)" stroke="#24AFAF" stroke-width="2" stroke-linecap="round" stroke-linejoin="round"/><path d="M 0,28 L 169.99999999999994,28" fill="rgb(255,255,255)" stroke="#24AFAF" stroke-width="2" stroke-linecap="round" stroke-linejoin="round"/></g><g transform="translate(785.5849999999998, 835) rotate(0, 29.415, 0)" width="58.83" height="18"><text text-decoration="none" x="1.9149999999999991" fill="#00001d" font-size="10pt" font-family="noto_regular"  y="17">O2:Order</text><text text-decoration="none" x="56.915" fill="#4b4b4b" font-size="10pt" font-family="noto_regular"  y="17"></text></g><g transform="translate(734.9999999999998, 863) rotate(0, 0, 0)" width="128.75" height="54.01"><text text-decoration="none" x="0" fill="#00001d" font-size="10pt" font-family="noto_regular"  y="14">order_no=&#160;</text><text text-decoration="none" x="65" fill="#00001d" font-size="10pt" font-family="noto_regular"  y="14">0013</text><text text-decoration="none" x="93" fill="#00001d" font-size="10pt" font-family="noto_regular"  y="14"></text><text text-decoration="none" x="0" fill="#00001d" font-size="10pt" font-family="noto_regular"  y="33">order_amount=&#160;</text><text text-decoration="none" x="97" fill="#00001d" font-size="10pt" font-family="noto_regular"  y="33">500</text><text text-decoration="none" x="118" fill="#00001d" font-size="10pt" font-family="noto_regular"  y="33"></text><text text-decoration="none" x="0" fill="#00001d" font-size="10pt" font-family="noto_regular"  y="55">order_date=02-05-20</text><text text-decoration="none" x="123" fill="#4b4b4b" font-size="10pt" font-family="noto_regular"  y="55"></text></g></g><g id="XlegYJdUbVV"><g transform="translate(1030 830)"><rect x="0" y="0" width="169.99999999999994" height="92.00999999999999" rx="2" ry="2" fill="rgb(255,255,255)" stroke="#24AFAF" stroke-width="2" stroke-linecap="round" stroke-linejoin="round"/><path d="M 0,28 L 169.99999999999994,28" fill="rgb(255,255,255)" stroke="#24AFAF" stroke-width="2" stroke-linecap="round" stroke-linejoin="round"/></g><g transform="translate(1085.585, 835) rotate(0, 29.415, 0)" width="58.83" height="18"><text text-decoration="none" x="1.9149999999999991" fill="#00001d" font-size="10pt" font-family="noto_regular"  y="17">O3:Order</text><text text-decoration="none" x="56.915" fill="#4b4b4b" font-size="10pt" font-family="noto_regular"  y="17"></text></g><g transform="translate(1035, 863) rotate(0, 0, 0)" width="128.75" height="54.01"><text text-decoration="none" x="0" fill="#00001d" font-size="10pt" font-family="noto_regular"  y="14">order_no=&#160;</text><text text-decoration="none" x="65" fill="#00001d" font-size="10pt" font-family="noto_regular"  y="14">0014</text><text text-decoration="none" x="93" fill="#00001d" font-size="10pt" font-family="noto_regular"  y="14"></text><text text-decoration="none" x="0" fill="#00001d" font-size="10pt" font-family="noto_regular"  y="33">order_amount=&#160;</text><text text-decoration="none" x="97" fill="#00001d" font-size="10pt" font-family="noto_regular"  y="33">450</text><text text-decoration="none" x="118" fill="#00001d" font-size="10pt" font-family="noto_regular"  y="33"></text><text text-decoration="none" x="0" fill="#00001d" font-size="10pt" font-family="noto_regular"  y="55">order_date=01-06-20</text><text text-decoration="none" x="123" fill="#4b4b4b" font-size="10pt" font-family="noto_regular"  y="55"></text></g></g><g id="rgqgb9petY7"><g><path d="M 814,740 L 815,830" fill="none" stroke="#7E7E7E" stroke-width="2" stroke-linecap="round" stroke-linejoin="round"/></g></g><g id="X2fwVJ9NGo9"><g><path d="M 814,740 L 814.1470528872622,775.0000882618624 Q 814.1890675211242,785 804.1890675211242,785 L 670,785 L 535,785 Q 525,785 525,795 L 525,830" fill="none" stroke="#7E7E7E" stroke-width="2" stroke-linecap="round" stroke-linejoin="round"/></g></g><g id="8pASZPcTeBo"><g><path d="M 814,740 L 814.1470528872622,775.0000882618624 Q 814.1890675211242,785 824.1890675211242,785 L 965,785 L 1105,785 Q 1115,785 1115,795 L 1115,830" fill="none" stroke="#7E7E7E" stroke-width="2" stroke-linecap="round" stroke-linejoin="round"/></g></g></svg>